<mxfile host="app.diagrams.net" modified="2020-04-01T08:38:49.808Z" agent="5.0 (Macintosh; Intel Mac OS X 10_13_6) AppleWebKit/537.36 (KHTML, like Gecko) Chrome/80.0.3987.149 Safari/537.36" etag="j_WZ-Bb8_C-4NOp_TON6" version="12.9.5" type="github">
  <diagram id="swkm65_SA5ZGKqfjn4RS" name="Page-1">
    <mxGraphModel dx="1398" dy="693" grid="1" gridSize="10" guides="1" tooltips="1" connect="1" arrows="1" fold="1" page="1" pageScale="1" pageWidth="827" pageHeight="1169" math="0" shadow="0">
      <root>
        <mxCell id="0" />
        <mxCell id="1" parent="0" />
        <mxCell id="MhNQSqj7ac7EVrC_fUab-4" value="" style="rounded=1;whiteSpace=wrap;html=1;strokeColor=#FF3333;" vertex="1" parent="1">
          <mxGeometry x="810.58" y="290" width="229.42" height="220" as="geometry" />
        </mxCell>
        <mxCell id="P0lrBHYeqrwFTkQ5xpn6-5" value="FR" style="shape=image;verticalLabelPosition=bottom;labelBackgroundColor=#ffffff;verticalAlign=top;aspect=fixed;imageAspect=0;image=data:image/png,iVBORw0KGgoAAAANSUhEUgAAAGoAAABmCAYAAAAj4wTsAAAAAXNSR0IArs4c6QAAAAlwSFlzAAAXEgAAFxIBZ5/SUgAAHd1JREFUeAHtnQmUXUWZgKvqvvd6STrd/XrNRrbuEBIMAmEHDYIHFRQcR1A24aBiEoj7csZztGU8zsaIhnQWNhcUR6LgDKAeBCGyS2AgkK27syeddHrP0st7996ar+5be0knpN993T0ndc59t27VvbX8f/1//fX/f9UT4mQYExCQiVYW19Z9S0q1WAqdn0jz4e5oKeq0K+7OC3Q+23j7gi4f6vC1yMJ7N89QVuCrQugrlRAFvlaWLFzukhMe2B0ORnuuE4GcFTram8zyLSIZG1p3aSU+0y47/yxuXxD1ra4MF1xy75Y52lI/FMr6lHCdDJc+VHGSKp3IeC30VdrOEry0FkLKfOmIsyvcouKhmjfa8pyAqmSUXZhdJBkoaKF0lCHuipxsA0VLPc6xQ4Fs1zus+hyYtpD2sMo4wY9hs0MEw6YyfSnLY31Cy7+1hA40D1H7qMvS2t1No54WgSBwAXSZhk16ef16P8SINnKGbpGucGgQ/Gr4QQvZLbS7BUJeHioY97y4uTpL/Hb4bTcldN45Z0fR8o3/rGyxV0t5lXL15EzBJtlCDa9RgtEsSw3LSwRZtHzbNCXtB5mtLgOIiXQhgznCdaPzC0OqPnDITn2RfOO9RxrMJ20RypprixqGwFgMAFL84HlLzC1XVftDSak5U12xCwKyM+JWKxVcny7cDUFRQlhONLLjllN7Mz5qMtWrkSgnxl28ecobeJluAwOhdOWWiFaw17Qw9ByV9uLJ6MhC4CSiRhb+x137SUQdN6hG9sWTiBpZ+B937ScRddygGtkXh5T6RrZp77H21TpY4TYV96hDBUqofN3rBlQo1OtEdbfOszoP7nmwQ9TUjM0lAaAYk4gqXb1johuNnM6K5kyWDu9jMTNTOA1lrJ5zLVdgAHCUDJDqRrQVYNUYibrhshu6dO0NTaRulUq/7Qr1hquDGzsXT2t/j0NiRF4fM4gK1zZMdaV7udLyI64TfZ9QslgKmYMmPldIHQRhFigBSQaOaevQxFKdHFJnkXkOeuFreOyxRORAeGXD68LWf+lVkReOLJm3f0SwcByVjm5E1TwXKKmYdJZ21bUoVj4ktZwCDsaDCJTIKFoMVjyc8JNAyNE7bd40q0ijqIvb3GQF6pdqkP6JHBnclbOy/o8ob9a0fbF6w9GLGZmcUYuo8PL6eVrp21moXw61TALK46EcdGAmDIIVo9D0svrnkR7Pin2Wnk95Uo7jMy5ZAs1VaVtfE17R8ITj2A+h29seK3Tkf0cdokr/bXOBLlC3YCO7EdY2BxBBQYZ6+geDAC7tdpCzGSRsgaV1k3YhyfNhieQrbu5z5P0FtXIJiJ4Bd5wP25tOHrNXOtLMfK0NO51AeaeogHVx8ar6B9tzAr8Tt87o6V97tp9HFaIMFblS3gnAPsY1EWD0a58hDd0D4N8V0n0ONfPLjtY7dEAeCopIl+0EZyshp4Oh+bznIRLVbwP6/4cjQvSGLJVrSTsfzjnRcaPnSikv5bXzzHyXQppHtSBMXAhyp4a77PeL2oafti2pMiaOEQv9ADFi7RDFK+quBFhfhk2dRyvwRUjwMtMmD0GdAP8Z7bq/k65aHwmqltJc6+COW2YllcZFtXUVmB8c83YigK6o1e10Hv72nEOJNPGc3lq4adfbwuleA2FNV1p8lLxPUeXMJMK0CPHtDKjwVljizKLazfd2LJnzXLKMLEdGBaLCtfW3AaQvgY/TAVRuOgxAF2wHBAnrYUfb68YFC/Y3fnGiYXH6sHnx1vS3jzN+qbTBuhHL28XqdXtwCdjQK/WTuAd8mmI/K4Qq8SiSCIMkTLuuYG1WGl5ZF25bNPv3x1lLRl8bcUSFV9X/IyP2SyDoDHqW0u17BKV3AbD7tCP/kBvM3d54+8TuToa4uD2DMMC5pkmIAyCsPewUbmP99RoS5hdgiR9I1aLzmbvOJe3OkhV1na2LZz+TystObJBJOjsVm1rC9266Qrh6qdT6fTz2RZJ2XyDtm71ReV9bS9Wmxtsn4VoGkvwKIKxtadVepSN/gL1+lwHyM6rqTlRHxTlc5yKMfIM13YWJ9GzdRwxRRSvrz8SqvBTgn2OAkOwwlATinpTCuit4uOupw0urm7NnDZa6ecm8w+3N9t8RMO6mTau50t0F8kDgRVDcIqMdSbY5C5ERQVTB6sZS5YpFzDMX0cfUnGTEaaF/jUfAjwry1ItN3zzjSBZgMLCKmnmRtv176nBdWEV7VvFCyomPdRfCyuWuG1k0/WfbU20fWEpGU2KIQlLKaKnHKCzodn2OafoKXjNrlljwKMl9QrpyRVt55I0dI712qbnUbjmwcytLrYegojWe15FpqVFTCVlG+sc7u93L4q33/aYCOhBlZO/k6lOZdmzR63a2GOmqT8YwHzyWp8XVdHgSRcUqNXVr/TLKuNoJ+dab4tp5LHtGQQBZHY7cJF39AIreF1Iw0hYMuhqt7/UFyzchIWYwAG8DdwP/9KCsnvZObYtfoPNC72zgxoXKWTjRRw+1jE+tPdK/OsH4vJoNIdYsN4OV0ykiTeLUe6h6leUWvjTilNS/b0urewMTCl9lfbaawZVa9Eph9IXnB2Xgmv6fDPfZg7u2f+PhwSNgXJqbjjze3V7R+zqj4/OQ81NU8pJw7f9UUn9PfH9u+kQ63PrF3nBoHkgyElNhsjDjyOjqx1yl1jYvKfeWRsm8URJpurnyiBLu86ieHqFJMQ4DC6TlkxlgV1esbCjPaFOBu3KsGoMHyn3J4EV5xjRYTa41/rcyEPw2ToVL8XG+p2XxnC2ZZnuWhWpIy2lUnhJitFuPhPXHdtG+L6OdzXBhrU2NTa6wzEBmUMc4dlxanRsxiuNMBthfyx2z6gwePHyAlyT7ia1ThG/q/bLaDZVILB+kj+Fkn2gQUtUaS0XXj/pdHcxX0WX1m0OWfpI+nJvoA4Q1EWq7Uvx49+Pia1OT665E/nDurYtO3cv35kob2cMp8Ti+jWrrPJiFoabUwlboLShRn23Z19R8HEWM+CuHK6vapGW9jDJ3a6oxOo/BNrckD2OmjyHFgnysxBStlLWQW5mJeyEmuKx1RHSbYLQmkkf1/Vrp2K6zXbt6bUoCNHxQVrra8VVUzwqi8ldvnAg/P5N5OLVu0mz40eKVfFV4YFQjp1/jco90N0klX2A5kT64wgDyQrG6MW457vdRBh6zgqiQHZrDsDOSkZXW5gYmqHpPE56WOJyolAGXwcCYSA8kZTA0fWN+l+vKBirZkVZsiPjkcPTIjLS0jEaTwkRGSx1QmIshz7OcpuW4Lzuu3ndCkmXthvFhkVMsLF0gbV0AcsYzBCa4wp2L8Dw1IUGbypS0VE/ewVxRs6FXoBpKa8CJRRGAAqu2NjmuXEc9VYlCQFwhbWD54Y9Alh1ESWkWuCm2Z+Ynrd6VdmBIV63SBzHL96gp0MgU4D0Zs/sU6GMyWgHM6vg5uCJXK+PoohjROhcZ0tRRmiQqlIau0JeHrAkV4TJY7Yp6m4nfrA172aOFwVEcZA3XiEZkT0DIvSqi9hzomHFMJXCPndMWkN1vI1R8JjEoQFQBrNwgypfgP6IefdRSLXo6FJXk3wC0F3lze0d+65Fkr8x2k/t2Vto6Uq1cOZv3Z7u9+hQozhjxilyti5AQCwFuIWsxw2p4BYQngnEGi69FE0kGYSC1iroY+SxXYxngCguXYI7RGCWl7CTe4Wq30wnpjnB5Q6tYXr+b9I2Y+Dfmibyt8aVLsthDwckHS+xtdTq2mddj5/QJE7+YlnwpwxHfETW+9Sy8e3QRnUjOT0Bqn3Blk1i8IFq4om5mQKhL9KqtZ0Itp4CkSpb85VrrCvqK5xG/IMRoHPkubpHyHo4TFAPepURp+m0uo/2mbSzCTR2mRLxhQKwx+++TrruvRx/eU7SioQHl3gYd1a+3La3eI26XUWd5XQvvt0FVMUlWGlMN7mc+Ba9tPpXtFVu6ouFs2M8veEixBSleAfC/ZsCXAsYzgdFc8plbJM6UxEiM/5hIPJDhtdb7IR6/m1wTR1UJjHu9x3T7lmdPgtxUAO7Ge+myRjKeQKZXcay+RPkUSmo7aGThqTeR+aorxVqlAyDGvp9nw9ZN2yAw8Wpbb+5lmV74muJ9pyhXWWXorGKsytRogpbToQ7sUWISI7KIFLppgMRlbiYYQHnAMsCF1rRu5bv9WrrcGcmubkNSaCd+kK8PAc4uLVUZLOiTpJ/llWe0cVqv5fPHcKPlFXcc5wCMp+ACHou4wihbwwyaMA2oJF6GMZPKTTvil5FHhHE144rNQZcYZxik82bkChbv5JpgiF2JnNKgLm5JswzHMof/6zuimLvH0Zkk24s3eSJImJgGjFiyhxxmItfpBarbAB7zgN7Bu7u476ecdijnkLaCh9yIc9gOWYdzup3utpzObrFoQbR4xbb5Qjrn8d5ZHrApD/RsCXV3/dIzQqK9D4crcy1rf35EBjnrAqlRuuNFwBqPNy6IcyuF40yF9U3jw2rKmQXixqe1k35IzDN6Evgx1NtHaY0nb0CrHqNwboz3M2M33xHFwMwBXAzt+Mjzmp5GOeZZkY3JFGS8Kx3nDQDzLl9shefsDUTsppb801rMvDBYr1PSiCECW3FMUHpF3kh33JzYetFYboUwIvrBwcoSj2qronVrScSOVkgRmIREOV067mlQzvtp8ftBGoKMoW6vN2ZO4koP2mxJSEm36VnDjPuOKNhECJYSA1T/xnqsyT3IKH6Rd16Ekv7X1aFNHfNm7BW4dPV/3fdnVESeR5LxShLiHVGjVVnZxnJb51ZB5mdI7V7EaPgACJt8lNNbAjbU6Uc7fUcUrNuwvb6jPNYTJl8Xg5z4b9eynu3MP7xJ3DxCPhJHgyxHLDQLAcvlWq1fK4nUPcs+ngtAknHY/Bjdgq1DXsnAiGSkJR8zGPEdUbAKBKYBBNXDpP97Fp2/snLsl9pvq86oJTmD8EkVBettNT7uNbqhuGTzOjxsdyE+3MILKVO8GY5IR6mPMhfzH1EDcOQ1/i0suivbS2a9KmA3metOFkqqkTbqlHcKV9evtBzN6Sryc4laWfsxKH3BE/KNz4G2M98PQEYnZo/WMYekNFjJqGU0G+l8DwJD2+HYgwsqad+eSNR3RAnXeheRjrWO0S0kwxnatj+acV+DZPH+RozzpaWcG2DpH0mriTOjRHNU9dSlpWUs6jvra6/o2RJuCR5AWjIsLlaflJVMwouiHPpUWtvwlMi117XclrbbImPdy2xBxuGys6f3bFYSn4ZL/AOIqUzSlNY9CE7bDy8+w0iMGQ++I8rz0auta4aiWL+wzjDBrPolfnFaL0bUOFdE1PNFK+rXmXVU54HqXbgwZ180HwK0Bau3lIZca35nt30O66vL6cBFtD/P60f8O5YXXSx4dw5RzLCy/EeU1zyFlKvNQjM/2VoPWSKPDl+CamgBc3AdHV1fXFb/rlpV1+A4Ypty5DaUoL7w/GQ7BougwSicPG4yp4NWadeahc3rNPzNFyAmzKO9LHoZaOZKC+ShiRd70pIyGs0Kouhko9eRwZpuVvpC5CEunYGG4gzE+S7UPrtQMOCuputLVjTsQprap5WzLxAJHuh1Qq0HX3mlU6y5doC06Fl40QtBrqmaUItYqsirJJWYiGlZ/K9vTNCFJcWWGylDbV5JOyrRB07SkehMkHIqLlssdo39i+ncQ9DRihLdyHy7EyVn+p4VRAG7BpyAj6SBj34YJStmBrPZ2Yi0HhA82GPXUXNYjswx6lDtOF3k72Wf9W476DYGAj3NxZee3SwW1qENEgeVVN2ArtfCtuQKezrUaTaexYPRlOqJ0dxDF5cs32KjIA4B7hyqyiGjQOt63p1QqrRdikK3EnGHXfcclsjmNQyV8TYZyolTkNdOb1ZKOIpiXY4Fso6oiL0t8Zzpe1YQFRXBDQFh91/UonQVRq83mZGI4wu+6EbV5MElDphYb41BDgWpqk6sJQG+yTkMUtqhtiMACSSxl4lD7qDe6fH8GKAVG9CkLmdxzREhOpdPjSmF7TOiiPIKY9pynkyZRjA1RZu4J/sQN1g3zcKEgsa+gXfWmSUHqZ8gK4EojCyiIy/v8NimqEPRwM6wshEovO0rRqUEIGQBB3w8QqQTEf5iVnTno0ubQ84UgGXMDQwiAzWCh5g4EGMp/MrxUFxKr2ZGu0n1Pkn7TpqzKdQUL9OUF3stXjTPA47FNogxL3Fp1yiC94O0Hej01zOg1upo9DUZyJlLRTfGyuRX624+2eXnOe5ZoShjSNMr67cARONhGvM7l555fGp76ezXWPiuD99f/z9If6djdqhGaz0DCE4FrpMAZTlACBPHDO8ZiwxkkjCKRc1zWloq1wDxKHkJhJiXDWJ4L4aYVmKN+FLsZr7awVkXWyCuDVqF3jHH8RSv3looHAaUxFnHK9t8LjugzjdNSX6F7CCK1sOO6Ii6CmjEEeWdVrQgvL/hb0w2e9q+gImbO9efAYAqvm/bFA7nmGUJdxpfT8TsUc6WzRJmjiLYXTGjG7ZjNpVpY+9CmuTunR1hQGWQkx7MTnlKwyRLauySIkKbDpPGXOm2IV63InUeAGe0QTc4Qm0+GOjY2d/VmnkubDkum8LTy9et0nZeTk/JdDxriHJV4E3lOvgixENsNF7oBOSvSTEISgXICn3aLhLMlQzhZfUTVEhV2K5dyS75Eku6IA0LsXaxEssi1mHToL4FxGGfQNJjYeIdBMuXGCkgRUZIAkHC2L56oNo2qGYvFezVBzsb276zINW+ZK19I8GoHWbth3Qax5RXntxlFRYZM71vIWuICjrdWx0ZNAiZCwSD8R7NtbRTNb1m+4YdNcc+HSW+pjLrqvrBIFKIfwbS3z+DIOYkgyiEAMdZ297b/C3xtQu7B/vmPaWxvoKST6HoqrTv2hFg/m625qSlZTwKJ8lOMJuYGfmvAUQjVseClJjCrYUdFT2olIYfEEbMIgoBrE9QpdFwRgZkSUWgDEpEK4HZPhG0aEYeWZt49OueNUSZDuhA8DmkPYyo8QD7YDReJtzgDGNNTSSPyjs8ljlyGtSUdj68ZmuU2IqL21t+tzmrwLEC0bfpaANzhOfW5XVOy1nsbjyzsHxXTMjwu8cnWH7Zio14MAXn8bm54kHyTwv6xWyoubKKKKMh5/TJZ5CwUlSFxx29voItxtMS3R+Nd07+mUS7LoV1J+ZXuKzeawWDz2SjvVlFlOmQI+w/IQIjDMS3rXjSmTiPky3PYldiagGbjd4fbx2PIkRYeh5z7MKktCfEEeaqDc1F0zcebzHDeS/riOpYdNoOpvu1dBIXhESQhVDaJ22ZNxMEmtXnqAqFLUE2Kugr8dNJntYCOe1HrfQXFuvGKuB7yDqiTI/YtPwEI3Mr8nNMA26ECiEXoqk+v/TBLaOLqpbV5+B3bnSRHFMXEygZSb0AbmNAR//qO4biFYwIojrKXn8HLcCLUE9HsqPS6O1wR7YtY1AcNVQ1wZJTPY0K2vVEWxlW+6CoJ1hyGFeyrIQRQZS49lr+lFI/biRAehkbprGV/gdZkyyccM/G4qz0/hiVVPzH2+OCwrkQsTxJTXyCRkO9aenAk8f4PKPZI4MoutB2WtU61DdmoYi2KB4wbzNSb7Ryc84TTOCJ5BG5s68rmpc/Hwn1JnTBZfE20DyxjQH2aPOSGVmjJlN3csVefv+2CjfqThGO2fto74ufcRBvnw83XJadZVsekQF1DsrRSxB78dtmplLqTPYlXR9uC+1s02xz6eu95ENDBi+ypPWMSlfqa1jzLUwQPXOq2fT2XKDriP/UVFOjCifeMCOAIhqNMnMiZ4ubv3iNRuw7kWxWactdxZz59aKV26f7LYF1LD2V7ZXiCZCxLwkus89JiE/Sho8X1G4OJ9OzGKn45X62nVofxo55EyMnNpiNz57U65k+H/H9eDoqKSy/8UzliO8TvZ8zdH+iCkorC4OR7htkIPRdpvAFAOls/pP3q/yd6JdFzfMxI5+PQFK281vYy/NUkTBvM3C9M/FuCljBD2d7bWVcwqJHDl0MNd3Ceg9x3HA78yONfWoNpzX7as4wlVXcvT4fdfJPYbk3US/Hf8uFCo/VQsw/N7PZzLwTC15cXWP+xy+R5Ne95c45jZatH6JBRl9mLKqAxcBFzoMlfgWf+8sm+Xh+g1df4gfteGdXxHgb3YEh8INeO2J5aOz1006u9avEq77dIaGuvNBkFcy5KGV9xpEgpCyoRqcc3eMtoLG5vjWmX8Etd1Y/D1J+A3p2gqGUFCjVea4SX+6NHrrAd+HiOR0oqjCnn8kvMU6uSiCJNqGX1K+xDv9Fx60zUsuJfn3I2OMPjA1IT2Ma6lOk7xTTp7YhHmRu0cNks8MD76REYKJinrgUD6Evhg+Ezq5i8ZnIGvyOGg6M982L4b1vWr8nJMyijfWns5drMZR0fTKXeQm2sx7F66q2O6pfSab7GZm7BnklOAAvAxL8bMNQZbfcVnbIynGW8c6fuFLzldEGKPMnKuLbHUFxwaTV61JOnAMKhHMy4fVNHrqLprzi5txzeetbfHcrV+J740vOUaX65613nPp43zJ9fFpD2W6fM/a9yobuhY/tGaxotOuN2nZ/TN6fYD0pi6mhLKWuxir4vW63+EPGJE9+AqCDFXXsNCP+rlhf3KsLPwwV3oXX02f5KCE8GTLcifvZA+1lkQeOXZj/b4wqRJnuGpGdwz9+RHQgsmCDWO9qdFB+tvDehpnHZoWDA9BQUcnEz822RN6tbOr+F2jw0oQeD4JykPF2o+J6KDfQsWK0nG+bXPAO3qWRSe1YMvut4ns33YVrH04o5n8zcJRkeMeAKc9mQTyH0zSfapXi5yzU3zxQ2N1+PACtWqZz2u260h5bXSCUY9jchyg7NyE48GyO4NkJy3tQ2C21jUvO7xoZCAysdVQiyjSz/c7T3il9cNc3dW9PI4D7DKPcmBiMhApsjRu0uhbquigatR8LN6mn7NqGraAyrLTZMZLiilBLKDI+UMFfS0xtFdtn4ap8NXrGqxESSvuBw5grOOtc39d6ILpa1JyfFfNFvzYc9XHUIsq0uOW2UxqLV6/7oXCLmhGFzOJvFogy7sjcjHAnOXyXvzGy5Oct7W4CPVsQJnCNjgt+sXfmBKT+Dg6VF+OoOxPv2qCXnRAOKZg8DhOR6B5FbWtp9WPIfjHzi1fR6PgZ1YgyIGq/HV+7Gn13Sfm2N1EuLWFSvQj2hHYd3aAJMYDngTBOa+EyWEggwUiMQlwMBV5sCNELiTweSOoFOc1Ilc9ypsW9nYur3oi/Nepuox5RHsQ4RoDF1TPjfrLtnWAwej07OK4jfTYIKQAJaX1IYKMfnNOQQ455CVOFOd9IoLtTD3M8yFOd35l1TOfLfqVm9TGtk1mt94QqO/KVmcYp5p7C+zf/QdmBTzPPfILnmcDe/F9GDhgwjieDSbKGlYEc4x1r/ArlG0h1a5yI+mvHV7OgbaDy4w5sOhUpFXXyszGFqESrO7/g/Unkv4eXvbrKsUrOV0p+AMFiPgiYwTsTkCU44dr4CaKOksaJRnJmuXhXafUaTjRrW+6YiXNNYiJLlDq672MSUQmQti0937g3Px2/vGSEj0LHzisL6FAOmphDefvaWxprFowaMTvR9qPejWbi4oG5YxpRA7sTFz6EORgxFlLm40TK2LwPxs/HZk/+n7f6JKLGCIJPIuokosYIBMZIM09S1BhB1NGlPjy3SjHltSyrZy2ZwZBT5bKgczhGx9PvZLDkLBWFHexRs6jeaIn9oczChh5Myum0unutYP+CB0cUKheaU6Z7rHr26h1FL3NCcOmW7ta33DLnx+3L6l8X/C3dCZUygh+V3rOp0j0QvA5vk+v4y4kZqLAyCR/RY08wSrGQsGN+PomuDo6oWC7/up35A9fxf5hB3y4qxPjXWaOfH0uUVf6TbRXRkHOHCoT+yfuzyMziKAZ140ngob4v/odCFB/0fTmB3WHdzYkoUpVzLMEl4yu2votzxIFhlZfFj52APR0t/ZXazr6pSkVcx+GAqCwv4M0AUFj/xlaAGxifimN4QvnTJ+Va+iAKzf8SVmLHoz8VJUuNOQlx0Lx+talpN5rssRP4U5U97Oz4K8cqZb3RSeGitLbuLlfKRbSgv4k6Y41CRIlgS9qAN9Fd+Vb+0/3/RSZjFflYEB5QU0RAfx0Tyw3whcQuDx9r9Kaslv8DrWacVnnhIUMAAAAASUVORK5CYII=;" parent="1" vertex="1">
          <mxGeometry x="710" y="105" width="62.36" height="60" as="geometry" />
        </mxCell>
        <mxCell id="P0lrBHYeqrwFTkQ5xpn6-7" value="IBSS" style="points=[];aspect=fixed;html=1;align=center;shadow=0;dashed=0;image;image=img/lib/allied_telesis/storage/Datacenter_Server_Storage_Unit_Large.svg;" parent="1" vertex="1">
          <mxGeometry x="870" y="130" width="87.27" height="90" as="geometry" />
        </mxCell>
        <mxCell id="P0lrBHYeqrwFTkQ5xpn6-8" value="" style="endArrow=classic;html=1;entryX=0.5;entryY=1;entryDx=0;entryDy=0;entryPerimeter=0;" parent="1" source="P0lrBHYeqrwFTkQ5xpn6-20" target="P0lrBHYeqrwFTkQ5xpn6-15" edge="1">
          <mxGeometry width="50" height="50" relative="1" as="geometry">
            <mxPoint x="380" y="380" as="sourcePoint" />
            <mxPoint x="130" y="240" as="targetPoint" />
          </mxGeometry>
        </mxCell>
        <mxCell id="P0lrBHYeqrwFTkQ5xpn6-9" value="" style="endArrow=classic;html=1;exitX=0.5;exitY=0;exitDx=0;exitDy=0;" parent="1" edge="1" target="P0lrBHYeqrwFTkQ5xpn6-20">
          <mxGeometry width="50" height="50" relative="1" as="geometry">
            <mxPoint x="924.79" y="594.5" as="sourcePoint" />
            <mxPoint x="924.79" y="494.5" as="targetPoint" />
          </mxGeometry>
        </mxCell>
        <mxCell id="P0lrBHYeqrwFTkQ5xpn6-15" value="FR Central Server(FRCS)" style="aspect=fixed;pointerEvents=1;shadow=0;dashed=0;html=1;strokeColor=none;labelPosition=center;verticalLabelPosition=bottom;verticalAlign=top;align=center;fillColor=#00188D;shape=mxgraph.mscae.enterprise.server_farm" parent="1" vertex="1">
          <mxGeometry x="860" y="310" width="124.99" height="80" as="geometry" />
        </mxCell>
        <mxCell id="P0lrBHYeqrwFTkQ5xpn6-17" value="Camera" style="shape=image;verticalLabelPosition=bottom;labelBackgroundColor=#ffffff;verticalAlign=top;aspect=fixed;imageAspect=0;image=data:image/png,iVBORw0KGgoAAAANSUhEUgAAAGwAAABqCAYAAABZP7TQAAAAAXNSR0IArs4c6QAAAAlwSFlzAAAXEgAAFxIBZ5/SUgAAE+BJREFUeAHtXXt0XMV5n5l7d1dvafVGliwsS7KMQRbBPsLBgDEQYkpomkOU0po0rQFjA07rtIf8UXrEadoczkkCJchGTginzss4pU1x0kACgRNTWoMhDWBbtl42yLIlS6u3Vrt770x/c1fP1equdrW7Xkl3fK733pl7Z775fvPNfPPNNyNCrGBxwOKAxQGLAxYHLA5YHLA4YHHA4oDFAYsDFgcsDlgcsDhgccDigMUBiwNLjgN0ydUoFhWqF6w4o8PhcQwqbFQTRhEFBeYldXX50wPfCxGvZPhEZ+V1XnIL1YIVYAEWjCsyTghKvttidzpYEvfwXIVq5TpR0gjjMeUZY2yMUtqWcVFtO1u/aiyQPDUwYtk/S6CeeIJm7v8wk6kp1xNd3Kuq5LNETcmTzPKL1xSXJHqBcVOp4d9RyojwjjUN5Wv/hK9/FJhDTFtLYGGL4Tmr4UwNo+zPBeH3UKZeadAsuJS4+JHPFEK4eN7VzR4hAVJmSRhgyHymebWi0M9Dtr5AhbgK3EqlhCqE6/EDKaAkNBh7pmMkeYCQGd3isgUsc985p0q9d0F47hZUfIpQkkUFScOvjRCaGD1PZgCKeFw+gGFsynj+pFPxqrWEKNso9dailysEQNmQplQMRIkB0myMZsQsecDyGrrTdDpwNW04s5Uzey3AKcOAdAUR1IlfNoMbi+BhaQJW/4aak7eiQlB6gy4GNkF61grGiiBCVwATux+XOCoRUWwISwqw7IaWEkjQRk74Rs7oVZSISvBqJaEsxa/lSZAWJ1ATmC96wLKe+n0WSU6tZjq5FmBUC1xQGSoAUKZfdwBAUi1fImFRAlb8nU+SR2zecsL0qzEI1QhO11NGawBWPiEMgjUuSfGcO8WpQSwewJ5pdmSqYoVCacUod1cxSjdwQm8QTFklAZL//L3d0pGmYG0gsQFrPG7L03JyhMKLdaJXUJ1cD1huhK3takGZDZNczHEv3+Q2GENjHZd4gMEynlV6NkN1ewq4pq7iVN8AXLZQweTk1on+zs+TJTQuhQNywgBW1Hg8xcPTndTbVMhH1RpO2GcJFZsBT+EERuFUbKm+e3kBw3wpO7s4ReVKstsnrqOKfrdQVQBFSqCKw2w9Lk1LlfsR1Cv+gMnlizeJUnC8y+FzDJUSG6vTiP4lzJ+qCAU5bNwyboEVFM64A1b43d/njtkyP+dL0e8nqmOTNLMKHYurxhLG8lIggiISIjIugDkbWzOFYFso1//US8RWJrgTk1qF6HgKQeCyTZbG6CDm6NgB9kJ7UpZbq8XE9vNC41sY4yvB/GRcDlyLzuiaKA0nuoAdFkpWb0s11fk2OqptQQu5Eo0kC/BkQpTGja6JUvUEp4NizXlMmSVj0QCMZu0/VapwZQvvadmKedIaorAiAJQLwBzQHSanTgnOokQjj9KktFkjRoSACZreeCFH1UY2oQncDFCuw6rtFbhfgd5OWsb9Xd6s4hKNJ4lODxwEAkJYgOU+2ZSup9MaIpo3Uc5qkFcF5KcMnj7ZhiHPUMUtlAJ4HNXH0IBh3pTX2FbOufZpWB9q4PewDmPSWnR5RQROdMbkdpmaiaKKxDwzCwlYznPtGzWhb4cU3Q6wVgmFOfwWCEiSNbmdJ5uj95q5eg1DrOD8LkwI/gJjUxUgchA+bomIHg1WTmFwwBSwvLxLKYRi/sSUjKW0ahsGfxLuVVPAPJ5Ldmjlpu8kXI2WCkFYkaWe9FkaXMgxLGj9KZE2pUtI68E4NjPTQB/MgGSZHxYgZax/UjiRPvHdxHPQgscj/e+qyKMAmeSZvboo07juA3eG+sUFTyD9poDRJH0mGMbXlAOkDnB9H9e9/6b6AF4EwY9WBB/KT1QG/ceRQZj2IOj4KrSfpdQL+MD0j6CJ/y/Z+2l3IIdMAQt82XgW3A1/v7f7dpV/O2h6/CI7yeETX8/usT+AIlNxLagNxI9s05I0tMQPAdaTrocqDgd7M+yWCfTHwJmeYJnFPa5unRddvdw5B9V1kQdFxShDfqETscO1KzhYsoZhSxjGH/RAEwNOQjAJBEnhCtJ7JwR5IYgw+El0OBP9M6NJjb27S86bfRE2YP7MFn+DNmNK3NKkAi54J8B63M6VIxddxb2hyo4QsFDZWukhOWBs2tOPYY77OKxH71y8UDZE6qHQhQghAJMblGYqgbLjkR1QREHaJfedTBU0eQUXLIdRn82j865MX8q5jr3F2LiGIXc5BAMs7V8xu9nnoAMfde7cILXBedXdFDAxNkxJEubOM4OA0XdmTIin9GdP5aiE1dL9Lbdr1L4aa3NZhOjJmDQwm8LcI+pYT86+5uNEO/1r1TN2ouvv1o+EyDIgOZDEgOTEeZSEDlKufYty5XBPflkrqYN7bBjBFLDxedgMgTJG+JCCO0WB83tt1UTT70XMZ6CsrMJqJjYpQHHFYDuRMabRHBaVjcRGb/epKW/mNJw91JtXemb+lZE5JTxoGkhsgVb7tF2n/35xz2ppeAg7mAIWdm7TP6ivZzn5f7YVYH0FxovbIZXYqACmwvfGsPJzuErJtWjFZsOzXKYpwue4eCWnvjJn7+nn+urFMfTrQc+rmF5UQt8bWqAYRaXfpkTZ71KTXyEPF+E5shAzwLLytt8MDWgPILrV2J/FpZmfXKRCfx894RnMDLplxworjJNC8jB83Qg0CyB5hZC4ezDjULMLW7jLD1oYMh0ZI2LylV8L7EWD/SUT4mDvI6tfX2g5MQEs90BrpdD0+9HN3eLfTMcHAdx7AORXaGlHicZP9u2pGDSIl96/hcWVsC5tg5T9Ca5rAZp0M7gbFe3LzT/twiz99EIrehm+R+/H2/HfS0IXP+7ds+YP0aAh6oDJvVtuzV0HCboJAKVhePKg5zsKaXq6t7vjTVJ/y8wuDs8uQk6iczyV29h8hgvYBoW4HkCnQtLu1JnyEXlDtM51lE80mBCDPKRqfRLXD71ez49H/vqa8XOMFl5S1AEbSfasxk6TO8D0IkOroOQEyHyhd1fla5JcA1DbaCnmHllQQphO+cWB3RXtkCrRQyqOZO9vhu8izUPrrEZcKYxOm/I/bHm1m5DWhVc3LjkMoF7H0bs8bx8dftkVtsZrTmPUAaNc1MJ7Hh5U8gweMYox92VsujPAyms4kTYq3JuwQfw+kHUNMLIxwY5mH2h51lUhThtS5COvwGB2J9LLAVwKMlmnMXIdnhMeMHT7l0DvbzjX9/U9WvXf5qyPLDXqgGHHarWhuoMeVKAJEvJ+367VAwRjlY84NmJh5B9hj6wFmAbFVFXWUU2rzGpq2tFfLz527aGDOc+1vsO5uAHKejneKoOk4nSaRA7GXKob88sf+QQ7MPhoZUusqA1vBjwPKoDDSnQJKZAOeBeIswrXL8jPnM78Ikb5NgA6CZaRndwIYXPAAdV2h/OKtnQZp+viFMBCL4hAaSYkFlOChA1y0bCDC/3rRKPfGHy4PGZgSQ5EHTBIVyFkK0lmDsVjmFPFvwhnd2Rg0oUDTfySJdMngpDbXgUttXMh/e6BEeuFePqtHehZQWRa7pNvGWBOfJMQv+jv0Zigwer39atDP3VNaL4xJC7CLtF0WiRVeA0SYpcWDNTJeFnRqZdTMWIoIoEVAigK1c95xoYMwyVWsu0KwsRrGMDdvY9tHpp4ToRfak/GMXmjL2mj4qGhv10Tt/XBqEsYwOoCWDDk4o6xCjC7xGDwiO8CnOb+AMC8EKEpngMsonl8GufH+mtqhmWCarOtRMuFvRGB61BcBDT/RAmgHUetCd/YPwhF2TH0tcqQSyLRpDzqgOE4hndQI5fECz6MODuD1pTjyIaex9YMY4PlEfjs/D2uj7GsgBckcLwZAG53pGc0Q0vEgisidb6RCWyb9YezOqenxu8v9w/GK9GK8xTvJj7xL307ywZBu6xp3ELUAdMV/haoh2ET9ZCTXyZu67PRG/AgXOc7LmpK2guMKl8EaNuh/n5BCOUeZtd/1XVfgbSviZzG1q2QrpuAW7YhiZScghC+HzeOzF0Q6KNvYIXogaQx+2/941V8wZKkRTiGzY1zWlby6dEet5yDwD6ILUdCbAJ027MPNHe5Hqw4gYGohxw+3Jd3actJh9ejd+wt8SslO6BJNrRuhgLyN2AMJs1EHjDZjRZ9rC/Xe2ZuPsY4Bd03xmJorOIljfu+P8BtJ/r3lsxyP4sxFZPZRwjY5PezbjrqStw5jWcOcY2vB89vgpSlQb2/S2gkLXtf8880u/f1wbp1LoigMV4ZGdQLu7Ow/Q6q67vxvBlXGoCW+uRrGPd+TeBsM6ugOEWAihZI+kGmay8OPHLVjIaDrcArsXnxK2hcxVggek/h/EjPo1WdsSQtQsBMtUSSPJL8wYjD/T20SuxlZjVYPIGpSdwJAMpVr31bdsOZdsR34dQ1H4MbuOCtVQBVHpxSDelKMsY3XTuKpZif9Hsx+TYNMeiWpFIkhIau+W0m6A+ET7zes2dtx3Qy0Piux74DNDBxG1YbsN2K3Mgpa8N3F2I5rkUI2HTSZ9/Lbi77meZfUkU40MWhUnSDMZ4RnLgmxHowApqVGIBigUU9ngb2rEAl8SMZxTV88xYe96FTfIvsrohv92OAxYcwhr4OYp53KKm/7dw9bf0Kxylli6xbcdr2XlC7BTTb0BDxI4+tYMXy6HQ8xYzmCAGbewyTtMsgB+WCgxd/5hseknOvOgC1EQyQZxfiuDUYd6WLtcxG1hY1B1AQW9gTKT2G6eghNqi/3fNYxTzmXoDfyAB5LDT4JesT0PcLZHXQ1XX+eN/k6oKgac+05Dp0ip6C48gK+2YCj+rJgG+F0B0FHrcK03yiATZJpulN15cLR0jj8Z87valNVFVvg1mgFqr+SgAjj32Q5+zKAMcRIpWLs4j7nWD0tT7n++fJrjrdNPPoJ0oXdNn9vqjp+g8HHq1qnyzC2GzfVMK48scYWL9KFHXVDLAmX4z9TYQSZj6GzSB75wZfH4H7sRAf5X+/PV/TtWp4BJQZoAElOHZdAm6nbG73B+E738woKeIHNBgPlIt3MdM/6E0WPx/+q6pJfws5h+ztaV8DhfpL2Mf9ILrqXGivwcuChhQ8IXqxEQIWAQGYYEI3lgt5v4ng6xh9YvTF0pT2P7ChfTNtrPsd18NTGxCKGjtTejX3pyjVdmD+dS+6yvHdpzEiZx7Zxg+weRAT/1dEL8D6L4Vr33D1VLX111dg6WAqeH0jVfAZwu4Y5Z5xk+hUYrA7Gtu/yyKLXK6AoU8TA5gQPOW6VPHkXJ5ZWBC/Eqazq/FuMHguS1xkgIXpSBrTmknbo+zZ5hswv8L7H+OM4L29D1X8p9lnOAmVCZ2oUnlMlBAJYPAj1NMSpQJAKwcSEHqe4VfZMRlmxxRF/WLPziuNhVXTesyhW5h+E+PE8AGjNJ0I5VbM9Pdy7nvJpyWNEa87rm0w2SZN5GqWnkQfQG8lFzbNy5dLOIL3QSk95LUpT4zcX9pNdsaYszHKPnzAoC6BlhLw6HHGbF9z2LHiYI/vuV9c0oA+DQ4vUtJDgoV1VLls/zQnYz8ZOX/NAOZ7CTMopT7dVmC3YSJOxFrQhTUnnBWObgAN8VXXIxU/CMTdFDDjNLGkoCMuMhZygdG/yBiYa6yfjUEFPA/JdgFThP47OP40eBk5OrSzGlPCMAJclNEuwEF8E7Is4535vDVFABpe0nMt38ZBQjcDLDS+SauNijI/mXpx6s4UMP9pYl7zFjyVV6LdDaKx/gck8QBN0j4c2lE1DzNXQBVkO59iYkBiwGN4UBkfp3+zKVs4bVhKEiv85YznCe8Ioevwz5wdTAEbyD02mNNzbSfMfKNoASmzP0/EGLQvwdtglfgpjgE81Mf6T5MdG6YZ/cKgGYMecJi/kih76cA/UmpSHA5ac9gEx3gy/yJMASN1dTrf33IEHgzSMbQW9MsTF41KzEWHkW6mavs5YJrHXHmHisdCo4YurAU9zcvE5321b89Vn4AXEbT9UCUFT8fYU+YbGpZLLX6Pr+CvTcYmM9sKGJJtkxHzuDEHDBlkdinv9eeRp6jQytF+YCwDS9CE58pb6Pi7QlhXkcu0Qd+B75tUGczyCPrdfCLhDSKEep5kZpzs254zKG0U8QtGdf8IKxDDzmdb32XwLDIrG4sWqXBTr0NzyjV7LzAtJGDjf5r2//ChvKxgxgHK1mI14n7K+Gegr4xJL79gr8PvUq6np6PZrkd6WCp2SMCCFWjFzcEB2fEwWowxCZccmUzm84CSzt1RzVHA8rUlzsmQBScYI0Hw0WDBeSMDkyYQjewXeR5yrMVgG2JqHtdKWoCZsduYMsdPy5xBCsa5Gc/jDxZgwbgyEYdFMCgHxvR5Iipuv3MoLBZgIRCwusQQDEqkZPRJHlzShTxhgiVhJlDAcxkb6onfldzkvXgmWfMwE25T3dfPVdZNjbOh5jTumORglgTZncMYZPaVBZgJd9LT7R/0u8l3iKZ1QLUvhoJvZiU1ySkgCflAckuRJ/xFwvOrsQAL4OX0x7N/uWoMrm7vjvrkXm1fMqwYhrVy+jtU8XtqT48zuxe6D6ZWm9AVYcd+gh2Qsi/jfafZN9PTLMCmcyPIfedOw6/+XJCkBUdlP9v8IkwXn0NGswGTE/YgwVI6gjAlXlFUSfoYsMzwhZwsew77igXYJIfif4N90kMYx8JaXLUAiz9OkyW6XOXDAOwV2O1ll4sVGbjK4KI4YRvDZVBsrDFskn2X4QZn/LIDrQc0TZwDOmU4mtAuN11RDgdWob95GSiyirQ4YHHA4oDFAYsDMePA/wODuTsyMtwT1gAAAABJRU5ErkJggg==;" parent="1" vertex="1">
          <mxGeometry x="897.02" y="585" width="50.94" height="50" as="geometry" />
        </mxCell>
        <mxCell id="P0lrBHYeqrwFTkQ5xpn6-20" value="Video Edgebox" style="verticalLabelPosition=bottom;html=1;verticalAlign=top;strokeWidth=1;align=center;outlineConnect=0;dashed=0;outlineConnect=0;shape=mxgraph.aws3d.dataServer;strokeColor=#5E5E5E;aspect=fixed;" parent="1" vertex="1">
          <mxGeometry x="893.48" y="430" width="58.02" height="50" as="geometry" />
        </mxCell>
        <mxCell id="P0lrBHYeqrwFTkQ5xpn6-26" value="VMS" style="shape=image;verticalLabelPosition=bottom;labelBackgroundColor=#ffffff;verticalAlign=top;aspect=fixed;imageAspect=0;image=data:image/png,iVBORw0KGgoAAAANSUhEUgAAANIAAADQCAYAAAByUT9JAAAAAXNSR0IArs4c6QAAAAlwSFlzAAAXEgAAFxIBZ5/SUgAAF09JREFUeAHtnXuMXNV9x885987Mzu76ie0Y86jN2hR38SMxVUVTIZTQQgpBkZqkUaNWShVRpVVCScFgG5RFRRgbN0SlaQqkzR8RaqSqVEVOShpRUUKaf7oUsNe4xS8wGPz2enfnfe/p94xfY3tm596ZO3Nnz/1eY3Pn3vP6fX7ne5/nd48UXMR/XX1fdv7AwOJKxVuipTMgPZ2Rws8IR0niaUDA87UWqqgdWZTam3Jd59CJqamPfvP9p/INcli92bXauoDGzcFSzhU/pZS8W/p6mZB6gS/FQqk1+TRgqJWoKK2PSl8cE1LuL5e8F4Hxx+J9kUghJfaIq4WWO4cevllK/U2p5W/j96AUUimBf0EF/zboQtx8jgCYCZyWhG/+LzSOPXJSS/0zreW3b9z72C/xG3uTsSSyt4xd9+C1QjrfhJe/DOEsgPOPoye86vv+L5RUb+SFd0Qp9ZGs5MvJ6AbhrdRuNgVei7PCWeRrfy14fRLHnltwULoCwjqGjvW80N63h/dteS986TMvR+KEtGPFxjuVrzc70llV0f5hiOivtdI/clJ9R/qnRGXpgTGI559wdIW0uExLAICA6QvqwNLhVG5AuF65sEj68ksQ0zdcqT7maW+Hr+SGVe88/uNpC7JgZ2KENDY8ktb58qNC6ftxwaHQCbaXlfjWoJ54e8Wep4sW+LInTHhn+dczk3LWypQvHkXnukvjqY3w5TaZTX1reGyk1BON7EAjEnMzrQvlR/AQ7qGUcEVBV/52Til3/zUJfcLUgX50vsizB6U3Dl5935fG0/3b+qT7p2XlPeQVyhUkeuR8QstWlGX21DVn19CGz+FK7Y807oyLuvJ4oZB6gCKqiyqyjYav4Wx4G+6G/xk/RFZFTxVkvZDGVmxc6wlxL6gv9qXekteVrTcdGsn1lBcsbYzhbHgb7oa/8YPxh43mWi8k4cm7HaFuxfX6z/GG9Yc37dsybqMje9Umw9twN/yNH4w/erWt7bTLaiGNDT20HDe75h1RXvrqH1fs+cuxdmAxb2sEDHfD3/jB+MP4pbWSejeX5Q8bnDvwxvDjcN4ruNN9zbjBPLLF0dFctIvXr1m/JJVyP453iXxfZIBEsUiVKpcr//OJg1sPmeLO8Qbg1xwhXoE/bsE7vDuw62+iqK5XyrBaSDgC3jbgpAdyfvmlNfsf+18D3Yho/9KRuVNO6W7cBP8hVLVMCmWeKHGJgAAOWm4q5ezfObTxhwNe+kV5YOSUKdbwHxva9FK/k/rMlF+6DZsopAh4d7yIt5ZvuBmHw1Vw2qTS/q7aCnMqf6MUzgM4N92I7b/A29csRjhUz1K16bgejgBGNJizfV5KeRv+vxic96GE6pWAKQmDW3dN+XoSq6uMf1bv2fxLs92Gxd4zkhar4aB5UMeop9WRWmdJqRZg+zXw7Jvak49qOFe7GIbJpS0CuoKXr0oOSkc/CU0tNZxrC6z6QYpRiGw1DnLGPxRSLaBeXHeEHIRYMrj/OVgWzkVP6nD5geFh2scZqeil8rvW/t9TH/SiDTOxTW9cf99Vrp8t4rIZooKwapaykOMp7R3E2OBfN/6p2TXjV+09I+FshCNfBhcbJxEyc9nQfjMyGQuuQpy08eJ/r3sm5Rzff5XrOHjdwSUMgYrnOd4Vyz64afRPylWehmv1UhmHsprFUcYPqZPGL9g8r2bXjF+1WUgmLAIPivTEoHaajqVTR/YudFPuI9W4ANwwz3jPdssALSougk/0kb1m+E/1SV2jqo0fclJMGL/gQRDPSI1A9dJ23PgqF9cWOCb6vspefGis09BUX3oORoX/McaGCbyNPyWRv04ybqohoIX0s8qdi7GLAvy2Yde0QjJ+0Lpo4paEJ3yr+Fp75IWXquIJ6q0UbpQ9pfN5Xa7gDfx63EAFzVrTtZK1itO9D15/hUs1N1VBrGyA5RzUc/4JkGVGJLFWSK3Qh/KMf/Mr9z72XCv5k5hn59CGx3BmmpNE22ttPneAqN2W6HV0CmlilxINIaDx1Rgv8AqY3OpkFJLV7qVx3SJAIXWLNOuxmgCFZLV7aVy3CFBI3SLNeqwmQCFZ7V4a1y0CFFK3SLMeqwlQSFa7l8Z1iwBfyIYk/cbyB4dd7fw5Xp5cifFiEQ9wlRkt/B/4A5Xta97aNtWsaW+uvn9ATbl3ITDxK3iR3HQ8YbPyavefGQ8nPqxI7ztr92xhiH4tnDrrFFIdKNNtSuHbkhgB8Ukl1EqTTuF9ZNOBfNMViH3mjWYZmsxgnF9BlP+1fMxEgDRfTLpMf3F+Rri347NXIoUxuoEyTlO0aYuZZ8IsGA/3Nux9qvqD/0xLgEKaFs/lO33M+aKE24fPHSOGyf8egjH2anyn4PKUwbdI880Irb6Cz1b9Ds4EoS63TXrzEXuMWv/3sij9IIq2YHTHEA4RX8OkNn3G3uCWJDclhdSi79HbPXTe/8RH4l8zn+ltsZhqthV7ny5izFp7n6mS4viNe7f8KIq2YJKB38Jp8p52bEpaXgqpRY/j/khJ7Va/Zd1L3w6PpC2wS+P7WTjbRXwP2CLsGZAt1GXEDLCnu000UwLZuNhqVwd9RSF1EC6LTg4BCik5vqalHSRAIXUQLotODgEKKTm+pqUdJEAhdRAui04OAQopOb6mpR0kQCF1EC6LTg4BCik5vqalHSRAIXUQLotODgEKqQ1f+0pZOYTGVrvacHXTrBxr1xRR/QSYTaniC3/R68s3LHSE19agVU84RZSnMH6vfmVNtpp8GKukomqL9v1FaEylGt/RpG7uPkOAQmqhJyBcB/OSiRT+uSfl6z/QwmnrzI4YDB8SWuoggsJMMRR2wSeWRUV7S1NaPBVFWzBFBwKidBr6xEwsYVuTzPQUUki/+77v4JvXRzGR1kp0/tvQ6druaqYA/K0gOK+I2KJKasGknP5z9GcabdL5U6lKEVnRDBNouCqkOZclN23BgQJTSGFNireNvZcl4obLCFBIlyFpvgHnjO9iDq1+IZxzwaTNM02TwlzQmb8IEnSkK/c5HmakCbC4SOer0j6cxv7Cl9GEPJh2nFk8BAyq3Llf/P/0BCik6flctnfN3m07sdH8jX0ZHhsx87H+7Ozf2NuT5Aa0dW2fZHC0nQRqCVBItTS4TgItEqCQWgTHbCRQS4BCqqXBdRJokQCF1CI4ZiOBWgIUUi0NrpNAiwQopBbBMRsJ1BKgkGppcJ0EWiRAIbUIjtlIoJYAhVRLg+sk0CIBCqlFcMxGArUEKKRaGlwngRYJcNBqSHBvLl9/NSYaewBjta/BSOlKyOzTJ9eiTyjvu++J3Cu/u+fpphOH/QSzYFwr+m8VvvNnCHkoTF94uL0Yfo6+oQ9iorEn1+zZ+n643MlLTSGF9Lkr5ByI6PfmOv1XmYm9XATVRbHkdKk6UdiR8vjLawtX/DxImWtzVzjH+/I3LEoNftZMVNYv00GyNU1jggtNeae83Aew91lkoJCaUKOQmgC6dDcmA8N/ooBOdlpr/X1MO/kOAonammgMYXQmEvWraemswyxmlUOXVtrgt0mXRvrTXkGUtDc6rgvfj6ItmH5zBQIFv4ozbkHD3gbVc3MNAQqpBkbwVe2gk53CXHn/MLxncyTzq+4c2ngzZi5bp0S4gFSTHvnMn7Eb9z3+d8FtaJxyDPPkaq0+jxThGtO4SOv3RHNdYj2miw3E0doEkuJcoAYv3tPOL50KFBZbp4oz+do8K9aWe8YuTI9btbN2D9cbEKCQGoDhZhIIQ4BCCkOLaUmgAQEKqQEYbiaBMAQopDC0mJYEGhCgkBqA4WYSCEOAQgpDi2lJoAEBCqkBGG4mgTAEKKQwtJiWBBoQoJAagOFmEghDgEIKQ4tpSaABAQqpARhuJoEwBDhoNQytS9JKV1WHuVVnQblkX5ifmEIFg77bW87lj6Itxi7NQd+hHEIhhcJ1ITE6f8739Rd3LNvwqTG1qa1R0jv8DZ6n5WxpJndpYeSqmVvG5EdbNkbRFti1AANWzZQu7YWHXMBl/RqF1IKLfUToZFXqekzwdX3704xBOzixmT8DKi1O6/CBribfpF+8E7OD3dmCORdnOduWjHRF3i/vZyDFxXga/aKQGpFpsB3xP7O18u7NCc9MfxnZgukr9Sk9JRHoVHLSp0yoa9NJvkw6qTP7Tompz2HaTMS0+pG1KIcoeoXZ1CTsjcxIiwuikEI6Nz/7+Osmy7pZS0xMUuTLrqNCrR17oizEd5qWvfbAU+O7hh99edXCFiaebVq6EKMThyITZoDqZnQSCimk+24afRadvNPLSKAKzEMKMSZKgRIzUUcJnHvY09FKWDgJ2E6AQrLdw7SvKwQopK5gZiW2E6CQbPcw7esKAQqpK5hZie0EKCTbPUz7ukKAQuoKZlZiOwEKyXYP076uEKCQuoKZldhOgEKy3cO0rysEOEQoJObXl29YWCgUvHQ67YXM2jT5HJXVpcpUvxgYODE8NtJ06M/Y8EhaTE3NT7sDuXE/H/m4uFKp5PT19Tmf2LP5aNPGJzwBhRSyAyjlLZvVl/k0pnPBPEkIBIpwyeuiQlDdaDGf/ymKbSqkfD6fzbjqFuRb16dUxNOvSJnpy4x7ynsZbaGQmviZQmoC6NLdCKM4LbX8OiYZu9JMxhVVLIUvdHmRM5g66k1+QxSOBRsYWzhZFtkFH0O+9ce8yTLaEkkgHtpSnfSsrMWHKPNfLmXA35cToJAuZzLtFqk9XEI5xbKu7MLo61d94Z/GhrbuNXFaM4FEN5zwpu5GoCDOLEumbcOFnUuElCUf+RAapf8NAtgdTVvkbNh3C+rpP2PvhRq5Vp8AhVSfy7Rbq/MGaTEHkbLfW7V/81vTJg64c+d1G593TSQdpg0LuyCoT5R9PYmJxh4Mm7de+h3LNq5WSn4W6ixFeu1arzJLtrV1JLWEQUtm4CMjWmmdbSlzvUy4Xqy3OfC2dvPXVGTsMvbVbOJqEwIUUhNA3E0CQQhQSEEoMQ0JNCFAITUBxN0kEIQAhRSEEtOQQBMCFFITQNxNAkEIUEhBKDENCTQhQCE1AcTdJBCEAIUUhBLTkEATAhRSE0DcTQJBCFBIQSgxDQk0IUAhNQHE3SQQhACFFIRSnTQY+S19KfN1drW2SeM73u0s7eavqdvYZeyr2cTVJgQ4+rsJoHq7ta4OMB3HCOmv7RzaEFEYhR70zCx5LXRfk09KPYi2bIkmjELMxqDVcYQl9bfSnnrMbN9GIYX0sMYMRjhaZxDYtxSBfb+m2gtFqtZutGMC+65wBgQC+3CVcChgqw5hjPYCNR/5ENj3GQTh3R0wY8NkZ9uCwD5XwL4Pjb0NE3PHeQIU0nkUwVYQLzRbSvU0QljnYFYVnAui62dHvAmFC8bDom9esEhXk056h5FvKybaQ3hUdG0pCw+BGf44Ahc50ViArkEhBYBUm8T3nf25QuGZTn78JDswEOjeK5vN5vHxk1fTbvalTn78pNZ+rtcnQCHV59Jwaxe+qHO6YeWX7Dj7paGPLtnMnzEQ4FO7GKCzSvsIUEj2+ZQWxUCAQooBOqu0jwCFZJ9PaVEMBCikGKCzSvsIUEj2+ZQWxUCAQooBOqu0jwCFZJ9PaVEMBCikOtDH6mzjpssJkNMFJhzZcIHF+bXrxq403+vF+M3oxq6dL9yaFSlGwUkMvWuNRe0YQiHV0MOobghIu5ll767cJTb1CfFwzV6uXkxgk8iIdwvY5hpuF+9L3i8KqcbniDPyEM42L+24b/JsVAOm4aqZrqKCUA491VIgVcNyZ94OCumszzxVgYjUQZySJk3n4BKcAGaVQVBiJfx8NMGr6PmUFNJZFw3vfWIPVlf2vMfYwJ4kwKd2PekWNmqmEUiskBAvjshs6eO2qOmkxzPNqXG2t8rTcDV8E7Qk8tLO0/oDePmNjEjdKrzsrp1DG1v76kiCOkowU/HwDvNTZ6Q7uyjKrxjOwfLN/FSJFNKHk5XdVw6knyvKyuL5Tv8NJcxOziUaAmnpiBN+bjdOSc99OFXeHU2pvV9KIoV0++FtU/uXjryQ88V/HM0UsulSJfHvQaLqquMZV7qVdH6WEKdWH37cvGdKxJJIIRnPLjswYpzM7x0kopt33shE3RB2HidrSCoBCimpnqfdkRKgkCLFycKSSoBCSqrnaXekBCikSHGysKQSoJCS6nnaHSmBJAvJTLzApXMEEsU3se+R0H/0jqFN12A+idswt1DO6VyHClwy4jjSuqS3r37viZOBMyHh7l9dP8v3nC96Wi42s1KEyRtlWsQlOQhOOuEp/8U1e7a+H2XZvV5WkoWEWDRvCPMbPYqVfvS+DKJjnTiiPaWoTrc3obSYpdzUb6DThBJSuZKaq7R+eKE7uNSLT0eYU8kRRyoTp6Snd8IGCqnX1R9Z+7Q+N/J7Fj7P8FMp5UkE9nX9clcqVcaR/MuYMCx91JtIt2hf8Zg3MYEDQXxnJCHMiX2ixfbP6GzJPiMJF1848c2UdAdktnLP8NiTsQ0Zwgj0T2OisGu1xHkp5OKm/Jxfki/gjDqFvyFzR5ccs6ThSlnOlq4+Gl2pM6OkhAvpzJcZtJCOX3bnwmWxCQl1t3wmXLl783Hk39hLXQ5yNrM5x6fqLsNIvJC6zLsj1Y2IEfWFYdGfPxnjDdJZy7LzhDqyUBTkKyOJ+vAFhdSRrt3dQu9YLgZ1ofj76azOqBYuDaNqrcR1nV/U3oKD7naUeTCqcmdCORTSTPBSkzYO6PIcPGRYP0/1L4/zqZ2rHDHu5Y5iWmjz1I5CauI37u4xAp4jfFkRJzAh8ySaFudTO3wsUhxVDp5CJmzhGckCh6uClxOuMk/tno/bHLyUHcAThmNxt6Pb9VNI3SbegfrOjoTY0oGiWWRAAhQSQJnHtFqcezcbkFwPJTOPmkfX3eNOzFoS++PmWROH5LrRZypxjBCJ0yUU0hn6eJWI0UFYcHlU/X83ndJup9t9w4b5fSfF+vSJYuxHA6kWZHf+yiN/L94Vb3eTYdx1UUjVm3M5ICruXRhd8PkxsanrPnlLbzA357MxsqGlupWv+vC07nZHqTVa+K0V0lLNF2dyhJKe0Pu0W37h4j32/0q0kDA8CGcfqTPSWVxUla1dPxWd7V8YWoO5URQGqplzk2lTuKXgl6UrHdd8U86rDigIlz+q1C4s8HQ5hY+shrYhqjbEVU6ihYQ+u0co/968KPrmRinOBUdyfUJPpga0Nh/zD7f0+ye9nNxUEuXYzkamwR7+4NIYD+NVeBvCWdxzqRMtpH/enz5617pD29f1wE266RmjuFEfHn029NCa1W9ty+Fhw096wQ5jw/bRJYn7dG2ihYQxav7IaHwvMKM6rOJkqsXos4l7CRoVvyjKaXnEcRSVswwSsIUAhWSLJ2lHrAQopFjxs3JbCFBItniSdsRKgEKKFT8rt4UAhWSLJ2lHrAQopFjxs3JbCFBItniSdsRKgEKKFT8rt4UAhWSLJ2lHrAQopFjxs3JbCFBItniSdsRKgEKKFT8rt4UAhWSLJ2lHrAQopFjxs3JbCFBItniSdsRKgEKKFT8rt4UAhWSLJ2lHrAQopFjxs3JbCFBItniSdsRKgEKKFT8rt4UAhWSLJ2lHrAQopFjxs3JbCFBItniSdsRKgEKKFT8rt4UAhWSLJ2lHrAQopFjxs3JbCFBItniSdsRKgEKKFT8rt4UAhWSLJ2lHrAQopFjxs3JbCFBItniSdsRKgEKKFT8rt4UAhWSLJ2lHrAQopFjxs3JbCFBItniSdsRKgEKKFT8rt4UAhWSLJ2lHrAQopFjxs3JbCFBItniSdsRKgEKKFT8rt4UAhWSLJ2lHrAQopFjxs3JbCCRASFIfdnLaFofNZDvO+EFa6Qt3JjumWdu1qP7Jzqmk5o4Nj+jS1Cmr7W3GI8796YG5Fb9QnquFnzVesW2xumP5Wk+llXs/nHa/KHrCdWfZ5r+ZYw/4C2kugJQo+96UlDOn6UFa+v9BhsbYQMYrVQAAAABJRU5ErkJggg==;" parent="1" vertex="1">
          <mxGeometry x="883.3499999999999" y="20" width="60.58" height="60" as="geometry" />
        </mxCell>
        <mxCell id="P0lrBHYeqrwFTkQ5xpn6-27" value="" style="endArrow=classic;html=1;" parent="1" source="P0lrBHYeqrwFTkQ5xpn6-26" target="P0lrBHYeqrwFTkQ5xpn6-7" edge="1">
          <mxGeometry width="50" height="50" relative="1" as="geometry">
            <mxPoint x="300" y="290" as="sourcePoint" />
            <mxPoint x="350" y="240" as="targetPoint" />
          </mxGeometry>
        </mxCell>
        <mxCell id="P0lrBHYeqrwFTkQ5xpn6-34" value="Application Server" style="image;html=1;labelBackgroundColor=#ffffff;image=img/lib/clip_art/computers/Server_128x128.png" parent="1" vertex="1">
          <mxGeometry x="659" y="314.99999999999994" width="70" height="70" as="geometry" />
        </mxCell>
        <mxCell id="P0lrBHYeqrwFTkQ5xpn6-35" value="" style="endArrow=classic;startArrow=classic;html=1;entryX=0;entryY=0.5;entryDx=0;entryDy=0;entryPerimeter=0;" parent="1" source="P0lrBHYeqrwFTkQ5xpn6-34" target="P0lrBHYeqrwFTkQ5xpn6-15" edge="1">
          <mxGeometry width="50" height="50" relative="1" as="geometry">
            <mxPoint x="380" y="460" as="sourcePoint" />
            <mxPoint x="430" y="410" as="targetPoint" />
          </mxGeometry>
        </mxCell>
        <mxCell id="P0lrBHYeqrwFTkQ5xpn6-36" value="Dashboard" style="pointerEvents=1;shadow=0;dashed=0;html=1;strokeColor=none;fillColor=#434445;aspect=fixed;labelPosition=center;verticalLabelPosition=bottom;verticalAlign=top;align=center;outlineConnect=0;shape=mxgraph.vvd.nsx_dashboard;" parent="1" vertex="1">
          <mxGeometry x="485.48" y="325" width="64.52" height="60" as="geometry" />
        </mxCell>
        <mxCell id="P0lrBHYeqrwFTkQ5xpn6-38" value="Red Zone" style="text;html=1;align=center;verticalAlign=middle;resizable=0;points=[];autosize=1;fontColor=#FF3333;" parent="1" vertex="1">
          <mxGeometry x="890.29" y="270" width="70" height="20" as="geometry" />
        </mxCell>
        <mxCell id="P0lrBHYeqrwFTkQ5xpn6-40" value="No Data Storage" style="text;html=1;align=center;verticalAlign=middle;resizable=0;points=[];autosize=1;labelBorderColor=#000000;" parent="1" vertex="1">
          <mxGeometry x="960.29" y="590" width="100" height="20" as="geometry" />
        </mxCell>
        <mxCell id="MhNQSqj7ac7EVrC_fUab-1" value="" style="endArrow=classic;startArrow=classic;html=1;exitX=0;exitY=0.5;exitDx=0;exitDy=0;" edge="1" parent="1" source="P0lrBHYeqrwFTkQ5xpn6-34" target="P0lrBHYeqrwFTkQ5xpn6-36">
          <mxGeometry width="50" height="50" relative="1" as="geometry">
            <mxPoint x="390" y="380" as="sourcePoint" />
            <mxPoint x="440" y="330" as="targetPoint" />
          </mxGeometry>
        </mxCell>
        <mxCell id="MhNQSqj7ac7EVrC_fUab-2" value="" style="endArrow=classic;startArrow=classic;html=1;entryX=0.55;entryY=1.033;entryDx=0;entryDy=0;entryPerimeter=0;" edge="1" parent="1" target="P0lrBHYeqrwFTkQ5xpn6-7">
          <mxGeometry width="50" height="50" relative="1" as="geometry">
            <mxPoint x="918" y="307" as="sourcePoint" />
            <mxPoint x="440" y="330" as="targetPoint" />
          </mxGeometry>
        </mxCell>
        <mxCell id="MhNQSqj7ac7EVrC_fUab-3" value="" style="endArrow=classic;startArrow=classic;html=1;entryX=0.328;entryY=0.075;entryDx=0;entryDy=0;exitX=0.5;exitY=1;exitDx=0;exitDy=0;entryPerimeter=0;" edge="1" parent="1" source="P0lrBHYeqrwFTkQ5xpn6-5" target="P0lrBHYeqrwFTkQ5xpn6-15">
          <mxGeometry width="50" height="50" relative="1" as="geometry">
            <mxPoint x="390" y="380" as="sourcePoint" />
            <mxPoint x="440" y="330" as="targetPoint" />
          </mxGeometry>
        </mxCell>
        <mxCell id="MhNQSqj7ac7EVrC_fUab-7" value="User Profile(PDPA)&lt;br&gt;FR Access Log&lt;br&gt;CCTV Raw Video Footage&lt;br&gt;Video Analysis Result" style="text;html=1;align=left;verticalAlign=middle;resizable=0;points=[];autosize=1;labelBorderColor=#000000;" vertex="1" parent="1">
          <mxGeometry x="1050" y="360" width="160" height="60" as="geometry" />
        </mxCell>
        <mxCell id="MhNQSqj7ac7EVrC_fUab-8" value="Admin Account Info" style="text;html=1;align=center;verticalAlign=middle;resizable=0;points=[];autosize=1;labelBorderColor=#000000;" vertex="1" parent="1">
          <mxGeometry x="634" y="295" width="120" height="20" as="geometry" />
        </mxCell>
        <mxCell id="MhNQSqj7ac7EVrC_fUab-9" value="User Face Template" style="text;html=1;align=center;verticalAlign=middle;resizable=0;points=[];autosize=1;labelBorderColor=#000000;" vertex="1" parent="1">
          <mxGeometry x="670" y="80" width="120" height="20" as="geometry" />
        </mxCell>
      </root>
    </mxGraphModel>
  </diagram>
</mxfile>
